#!OML:ASF F:\twosubjects\two\wednesday\Session 1\rory1.ASF
:FULLY-SPECIFIED
:DEGREES
225
root 14.3163 17.8501 -9.80594 -174.619 6.79495 -175.962
lowerback -4.79026 4.34827 0.956906
upperback -1.24734 5.81428 -1.21381
thorax 1.61256 2.92733 -1.4142
lowerneck -11.5626 -2.69241 -2.74516
upperneck 17.1508 -3.99699 2.33732
head 7.26544 -2.0371 0.80722
rclavicle 2.36802e-014 -2.54444e-014
rhumerus 27.3559 -10.6511 -86.6277
rradius 27.6118
rwrist -4.39259
rhand -13.9456 33.336
rfingers 7.12502
rthumb 12.1816 3.71074
lclavicle 2.36802e-014 -2.54444e-014
lhumerus -67.5163 18.5979 54.4799
lradius 7.14053
lwrist -13.9649
lhand -20.2532 24.6149
lfingers 7.12502
lthumb 6.09533 54.5072
rfemur 17.6306 10.8844 27.0023
rtibia 19.4168
rfoot 0.249114 8.85456
rtoes -2.03846
lfemur -34.3914 -6.89231 -13.6431
ltibia 29.8115
lfoot -0.0627753 9.05686
ltoes -12.1685
226
root 14.3127 17.8312 -9.98158 -174.796 6.41216 -176.905
lowerback -4.50548 3.98356 -0.222635
upperback -1.4171 5.3969 -1.3813
thorax 1.17373 2.72087 -0.993945
lowerneck -11.1876 -2.54838 -2.75395
upperneck 16.8989 -3.82293 2.45226
head 7.11497 -1.94938 0.86934
rclavicle 1.1045e-014 1.19271e-014
rhumerus 26.2043 -11.2446 -87.5821
rradius 27.3644
rwrist -3.19223
rhand -14.0921 33.1899
rfingers 7.12502
rthumb 12.0403 3.55625
lclavicle 1.1045e-014 1.19271e-014
lhumerus -67.0979 19.1729 54.5655
lradius 6.85105
lwrist -14.0208
lhand -20.4707 25.1621
lfingers 7.12502
lthumb 5.8854 55.0604
rfemur 17.0664 10.886 26.1401
rtibia 21.2962
rfoot 1.41931 8.86986
rtoes -3.02216
lfemur -33.9254 -6.69269 -15.0831
ltibia 30.0948
lfoot -0.042119 8.2422
ltoes -7.33607
227
root 14.3132 17.8275 -10.1461 -175.031 5.65126 -178
lowerback -4.11021 3.63259 -1.45984
upperback -1.5012 4.99453 -1.69827
thorax 0.783738 2.52871 -0.689832
lowerneck -11.2375 -2.49381 -2.73387
upperneck 16.9678 -3.81312 2.74177
head 7.15108 -1.92032 0.959378
rclavicle 9.45967e-014 -2.06736e-014
rhumerus 24.6196 -11.6507 -87.9515
rradius 27.7076
rwrist -3.34727
rhand -14.2577 32.9661
rfingers 7.12502
rthumb 11.8806 3.32314
lclavicle 9.45967e-014 -2.06736e-014
lhumerus -65.8556 19.4879 54.8565
lradius 6.28635
lwrist -14.3934
lhand -20.8857 25.658
lfingers 7.12502
lthumb 5.48471 55.567
rfemur 16.1552 10.3785 25.0495
rtibia 23.7141
rfoot 2.49423 8.90692
rtoes -2.80599
lfemur -33.4673 -6.48155 -16.8241
ltibia 30.4727
lfoot 0.0753811 7.44486
ltoes -10.2047
228
root 14.3107 17.8251 -10.3022 -175.397 4.91893 -179.032
lowerback -3.59902 3.27178 -2.50749
upperback -1.40635 4.55587 -2.00499
thorax 0.538828 2.3185 -0.474244
lowerneck -11.4831 -2.43719 -2.85217
upperneck 16.9095 -3.74631 3.03379
head 7.18146 -1.86272 1.07766
rclavicle -3.25013e-014 8.74653e-015
rhumerus 22.9247 -11.6277 -88.1089
rradius 28.3852
rwrist -4.20467
rhand -14.5564 32.9536
rfingers 7.12502
rthumb 11.5926 3.29424
lclavicle -3.25013e-014 8.74653e-015
lhumerus -64.2841 20.2536 55.2928
lradius 5.48289
lwrist -14.9697
lhand -20.6085 25.9969
lfingers 7.12502
lthumb 5.75236 55.8988
rfemur 15.1987 9.94044 23.9887
rtibia 26.3389
rfoot 4.02819 9.12559
rtoes 0.516516
lfemur -33.0401 -6.44346 -18.3804
ltibia 30.9955
lfoot -0.219422 6.00934
ltoes -12.5949
229
root 14.3044 17.823 -10.463 -175.754 4.29862 -179.766
lowerback -3.26413 2.96569 -3.18973
upperback -1.16101 4.17338 -2.20818
thorax 0.574062 2.12959 -0.329745
lowerneck -11.669 -2.51091 -3.09236
upperneck 16.5541 -3.80372 3.31035
head 7.11103 -1.86737 1.20138
rclavicle -5.39203e-015 -1.82882e-014
rhumerus 21.7705 -12.4178 -88.8576
rradius 28.7024
rwrist -4.21018
rhand -14.8542 33.1061
rfingers 7.12502
rthumb 11.3054 3.43079
lclavicle -5.39203e-015 -1.82882e-014
lhumerus -62.4976 21.2399 55.8964
lradius 4.75049
lwrist -15.3994
lhand -20.7687 26.156
lfingers 7.12502
lthumb 5.59763 56.0621
rfemur 14.1707 9.57496 23.1497
rtibia 28.9731
rfoot 5.97438 9.69087
rtoes 3.79028
lfemur -32.6071 -6.33891 -19.5516
ltibia 31.5958
lfoot -0.61718 4.53411
ltoes -12.9215
230
root 14.2997 17.8182 -10.6188 -175.851 3.66019 -180.337
lowerback -3.25515 2.70782 -3.73445
upperback -0.907995 3.86734 -2.36651
thorax 0.809482 1.97539 -0.192089
lowerneck -11.814 -2.66775 -3.34742
upperneck 16.1022 -3.95351 3.53098
head 7.00532 -1.92092 1.30097
rclavicle -2.94947e-014 7.95139e-016
rhumerus 20.6657 -13.0468 -89.2789
rradius 28.9294
rwrist -4.65155
rhand -15.3892 33.145
rfingers 7.12502
rthumb 10.7894 3.44211
lclavicle -2.94947e-014 7.95139e-016
lhumerus -60.5521 22.2224 56.7559
lradius 4.29097
lwrist -15.7642
lhand -22.0523 26.5435
lfingers 7.12502
lthumb 4.35824 56.4786
rfemur 12.7906 9.23404 22.4354
rtibia 31.6592
rfoot 7.98276 10.3389
rtoes 5.3897
lfemur -32.3391 -6.16382 -20.4879
ltibia 32.1773
lfoot -1.03797 3.43828
ltoes -12.78
